<?xml version="1.0" encoding="iso-8859-1"?>
<!-- Generator: Adobe Illustrator 19.0.0, SVG Export Plug-In . SVG Version: 6.00 Build 0)  -->
<svg xmlns="http://www.w3.org/2000/svg" xmlns:xlink="http://www.w3.org/1999/xlink" version="1.1" id="Capa_1" x="0px" y="0px" viewBox="0 0 512 512" style="enable-background:new 0 0 512 512;" xml:space="preserve" width="512px" height="512px">
<g>
	<g>
		<path d="M168,396.704h-44.493c-37.488,0-75.286-8.325-109.303-24.074c-5.012-2.32-10.956-0.139-13.276,4.873    c-2.32,5.012-0.138,10.955,4.874,13.275c36.633,16.961,77.335,25.926,117.706,25.926h44.493c5.523,0,10-4.478,10-10    C178.001,401.182,173.523,396.704,168,396.704z" fill="#FFFFFF"/>
	</g>
</g>
<g>
	<g>
		<path d="M219.07,399.636c-1.86-1.87-4.44-2.93-7.07-2.93c-2.63,0-5.21,1.06-7.07,2.93c-1.86,1.86-2.93,4.44-2.93,7.07    c0,2.63,1.07,5.21,2.93,7.07c1.86,1.859,4.44,2.93,7.07,2.93c2.63,0,5.21-1.07,7.07-2.93c1.86-1.86,2.93-4.44,2.93-7.07    C222,404.076,220.93,401.496,219.07,399.636z" fill="#FFFFFF"/>
	</g>
</g>
<g>
	<g>
		<path d="M511.433,238.185c-1.973-11.637-8.921-21.771-19.065-27.805c-15.815-9.407-35.942-6.886-48.946,6.133l-17.619,17.637    c-4.975-12.122-14.834-21.737-27.119-26.387c0.309-0.964,0.479-1.989,0.479-3.055v-19.667c0-37.227-20.44-71.172-53.343-88.586    c-3.1-1.64-6.832-1.537-9.836,0.271c-3.004,1.809-4.841,5.06-4.841,8.567c0,16.22-13.196,29.416-29.416,29.416H192.834    c-44.111,0-79.999,35.888-79.999,79.999c0,5.523,4.477,10,10,10c5.523,0,10-4.477,10-10c0-33.084,26.916-59.999,59.999-59.999    h108.893c21.465,0,39.777-13.756,46.583-32.917c19.309,15.038,30.854,38.215,30.854,63.249v19.667H259.999    c-5.523,0-10,4.477-10,10c0,5.523,4.477,10,10,10h121.969c14.619,0,26.598,11.522,27.332,25.962l-53.837,53.893    c-8.961,8.97-20.878,13.91-33.556,13.91H294.24c-1.243-7.949-5.258-15.378-11.739-20.94l-38.147-32.739    c-29.866-25.631-67.987-39.763-107.345-39.79L10.01,224.918c-0.002,0-0.004,0-0.007,0c-5.52,0-9.996,4.473-10,9.993    c-0.004,5.523,4.47,10.003,9.993,10.007l126.998,0.087c34.586,0.024,68.087,12.442,94.333,34.967l38.147,32.739    c7.237,6.211,5.068,14.071,4.231,16.332c-0.837,2.262-4.311,9.64-13.848,9.64c-2.546,0-5.062-0.663-7.276-1.917l-34.506-19.539    c-23.811-13.484-50.86-20.611-78.225-20.611c-5.523,0-10,4.478-10,10s4.477,10,10,10c23.917,0,47.559,6.229,68.37,18.015    l34.507,19.54c5.214,2.952,11.138,4.513,17.131,4.513c13.797,0,25.917-7.848,31.575-20.209h30.475    c18.024,0,34.966-7.023,47.704-19.775l87.959-88.05c6.527-6.536,16.632-7.803,24.572-3.079c5.092,3.029,8.581,8.117,9.571,13.958    c0.99,5.842-0.627,11.796-4.437,16.334l-71.757,85.473c-28.476,33.919-70.207,53.371-114.493,53.371h-41.027    c-5.523,0-10,4.478-10,10c0,5.522,4.477,10,10,10h41.027c50.211,0,97.526-22.056,129.81-60.512l71.757-85.473    C510.184,261.68,513.406,249.821,511.433,238.185z" fill="#FFFFFF"/>
	</g>
</g>
<g>
	<g>
		<path d="M230.069,207.639c-1.86-1.86-4.44-2.93-7.07-2.93c-2.63,0-5.21,1.07-7.07,2.93c-1.86,1.86-2.93,4.44-2.93,7.07    s1.07,5.21,2.93,7.07c1.86,1.86,4.44,2.93,7.07,2.93c2.63,0,5.21-1.07,7.07-2.93c1.86-1.86,2.93-4.44,2.93-7.07    S231.929,209.499,230.069,207.639z" fill="#FFFFFF"/>
	</g>
</g>
<g>
</g>
<g>
</g>
<g>
</g>
<g>
</g>
<g>
</g>
<g>
</g>
<g>
</g>
<g>
</g>
<g>
</g>
<g>
</g>
<g>
</g>
<g>
</g>
<g>
</g>
<g>
</g>
<g>
</g>
</svg>
