<?xml version="1.0" encoding="iso-8859-1"?>
<!-- Generator: Adobe Illustrator 19.0.0, SVG Export Plug-In . SVG Version: 6.00 Build 0)  -->
<svg xmlns="http://www.w3.org/2000/svg" xmlns:xlink="http://www.w3.org/1999/xlink" version="1.1" id="Capa_1" x="0px" y="0px" viewBox="0 0 512 512" style="enable-background:new 0 0 512 512;" xml:space="preserve" width="512px" height="512px">
<g>
	<g>
		<path d="M386,310.917H126c-11.028,0-20,8.972-20,20v68c0,11.028,8.972,20,20,20h260c11.028,0,20-8.973,20-20v-68    C406,319.889,397.028,310.917,386,310.917z M386,398.917H126v-68h260l0.013,68C386.013,398.917,386.009,398.917,386,398.917z" fill="#FFFFFF"/>
	</g>
</g>
<g>
	<g>
		<path d="M272.07,467.93c-1.86-1.86-4.44-2.93-7.07-2.93s-5.21,1.07-7.07,2.93c-1.86,1.86-2.93,4.44-2.93,7.07s1.07,5.21,2.93,7.07    c1.86,1.86,4.44,2.93,7.07,2.93s5.21-1.07,7.07-2.93c1.86-1.86,2.93-4.44,2.93-7.07S273.93,469.79,272.07,467.93z" fill="#FFFFFF"/>
	</g>
</g>
<g>
	<g>
		<path d="M482,244.834h-16v-36c0-11.028-8.972-20-20-20h-25.791c15.505-14.088,25.256-34.403,25.256-56.953    c0-21.282-8.932-41.807-24.504-56.311l-49.266-45.887c-2.912-2.713-7.156-3.44-10.806-1.852c-3.649,1.588-6.01,5.189-6.01,9.169    v5.792c0,15.24-6.807,29.464-18.675,39.026c-8.876,7.152-20.043,11.091-31.442,11.091H130.498    c-31.96,0-57.962,26.001-57.962,57.962c0,14.512,5.373,27.784,14.218,37.962H66c-11.028,0-20,8.972-20,20v36H30    c-16.542,0-30,13.458-30,30V387c0,54.038,43.962,98,98,98h128c5.523,0,10-4.477,10-10s-4.477-10-10-10H98    c-43.009,0-78-34.991-78-78V274.834c0-5.514,4.486-10,10-10h452c5.514,0,10,4.486,10,10V387c0,43.009-34.991,78-78,78H309    c-5.523,0-10,4.477-10,10s4.477,10,10,10h105c54.038,0,98-43.962,98-98V274.834C512,258.292,498.542,244.834,482,244.834z     M130.498,112.909h174.264c15.948,0,31.571-5.511,43.99-15.517c12.472-10.049,20.949-23.778,24.396-39.025l34.182,31.838    c11.525,10.734,18.135,25.924,18.135,41.675c0,31.404-25.549,56.953-56.953,56.953h-15.397H146.787h-16.289    c-20.933,0.001-37.962-17.029-37.962-37.962C92.536,129.939,109.566,112.909,130.498,112.909z M446,244.834H66v-36h380V244.834z" fill="#FFFFFF"/>
	</g>
</g>
<g>
	<g>
		<path d="M335,354.917H177c-5.523,0-10,4.477-10,10s4.477,10,10,10h158c5.523,0,10-4.477,10-10S340.523,354.917,335,354.917z" fill="#FFFFFF"/>
	</g>
</g>
<g>
	<g>
		<path d="M241,132.909h-71.333c-5.523,0-10,4.477-10,10s4.477,10,10,10H241c5.523,0,10-4.477,10-10S246.523,132.909,241,132.909z" fill="#FFFFFF"/>
	</g>
</g>
<g>
	<g>
		<path d="M289.57,135.84c-1.86-1.86-4.44-2.93-7.07-2.93s-5.21,1.07-7.07,2.93c-1.86,1.86-2.93,4.44-2.93,7.07s1.07,5.21,2.93,7.07    c1.86,1.86,4.44,2.93,7.07,2.93s5.21-1.07,7.07-2.93s2.93-4.44,2.93-7.07S291.43,137.7,289.57,135.84z" fill="#FFFFFF"/>
	</g>
</g>
<g>
</g>
<g>
</g>
<g>
</g>
<g>
</g>
<g>
</g>
<g>
</g>
<g>
</g>
<g>
</g>
<g>
</g>
<g>
</g>
<g>
</g>
<g>
</g>
<g>
</g>
<g>
</g>
<g>
</g>
</svg>
