<?xml version="1.0" encoding="iso-8859-1"?>
<!-- Generator: Adobe Illustrator 19.0.0, SVG Export Plug-In . SVG Version: 6.00 Build 0)  -->
<svg xmlns="http://www.w3.org/2000/svg" xmlns:xlink="http://www.w3.org/1999/xlink" version="1.1" id="Capa_1" x="0px" y="0px" viewBox="0 0 511.999 511.999" style="enable-background:new 0 0 511.999 511.999;" xml:space="preserve" width="512px" height="512px">
<g>
	<g>
		<path d="M463.475,139.17c-4.994-21.426-18.033-39.623-36.715-51.241L315.383,18.664c-1.756-1.366-3.569-2.677-5.452-3.914    c-28.378-18.646-64.272-19.685-93.678-2.706l-107.6,62.121c-28.803,16.629-49.407,43.48-58.015,75.606    c-8.608,32.126-4.19,65.68,12.439,94.483l16.974,29.4c0.114,0.197,0.241,0.382,0.367,0.569v18.039    c0,104.032,70.498,194.268,171.438,219.439c0.795,0.198,1.607,0.297,2.42,0.297c0.806,0,1.61-0.098,2.397-0.292l0.181-0.044    c100.983-25.146,171.51-115.391,171.51-219.457v-50.894l24.843-39.946C464.823,182.683,468.47,160.596,463.475,139.17z     M408.365,292.206c0.001,94.095-63.245,175.792-154.083,199.476c-90.72-23.773-153.868-105.42-153.868-199.419v-18.82l13.3-7.679    c-1.307,5.255-2.012,10.745-2.012,16.398c0,37.489,30.5,67.989,67.989,67.989s67.989-30.5,67.989-67.989    c0-37.489-30.5-67.989-67.989-67.989c-16.083,0-30.871,5.626-42.525,14.997c-0.186,0.092-0.373,0.179-0.555,0.284l-44.243,25.544    l-11.975-20.742c-13.959-24.177-17.667-52.344-10.441-79.309c7.227-26.967,24.52-49.505,48.698-63.464L226.25,29.361    c22.819-13.177,50.677-12.37,72.699,2.101c18.203,11.961,28.694,32.101,28.066,53.873s-12.266,41.271-31.129,52.163    l-19.251,11.114c-0.02,0.011-0.039,0.023-0.059,0.034L248.84,164.66c-4.782,2.762-6.421,8.876-3.659,13.658    c2.762,4.781,8.877,6.422,13.658,3.659l22.527-13.007l126.999,78.981V292.206z M131.7,282.163    c0-26.464,21.529-47.992,47.992-47.992s47.992,21.529,47.992,47.992c0,26.464-21.529,47.992-47.992,47.992    S131.7,308.627,131.7,282.163z M436.225,190.804l-22.836,36.72l-112.383-69.892l4.881-2.818    c24.917-14.386,40.289-40.143,41.12-68.902c0.261-9.021-0.926-17.829-3.416-26.159l72.612,45.158    C445.402,123.07,454.385,161.602,436.225,190.804z" fill="#FFFFFF"/>
	</g>
</g>
<g>
	<g>
		<path d="M226.971,185.841c-1.86-1.861-4.439-2.931-7.069-2.931s-5.209,1.07-7.069,2.931c-1.859,1.859-2.93,4.438-2.93,7.068    c0,2.631,1.07,5.209,2.93,7.069c1.86,1.86,4.439,2.93,7.069,2.93s5.209-1.069,7.069-2.93c1.859-1.86,2.93-4.429,2.93-7.069    C229.9,190.279,228.83,187.7,226.971,185.841z" fill="#FFFFFF"/>
	</g>
</g>
<g>
	<g>
		<path d="M312.494,406.256c-0.378-4.456-3.211-8.225-7.412-9.841c-4.961-1.911-9.373-5.085-12.758-9.184    c-5.362-6.489-13.267-10.211-21.685-10.211c-5.886,0-11.633,1.879-16.377,5.265c-4.743-3.386-10.49-5.265-16.376-5.265    c-8.418,0-16.321,3.722-21.685,10.211c-3.385,4.097-7.797,7.272-12.674,9.151c-0.028,0.011-0.079,0.029-0.106,0.04    c-4.178,1.609-7.01,5.377-7.391,9.832c-0.382,4.478,1.784,8.692,5.65,10.999c1.489,0.888,4.059,3.61,6.545,6.245    c8.856,9.385,22.233,23.559,45.975,23.595c0.012,0,0.024,0,0.036,0c0.02,0.001,0.036,0.001,0.052,0c0.012,0,0.024,0,0.036,0    c23.741-0.035,37.119-14.211,45.976-23.596c2.485-2.634,5.055-5.356,6.539-6.242C310.708,414.95,312.876,410.736,312.494,406.256z     M285.758,409.775c-7.659,8.115-16.338,17.313-31.495,17.323c-15.155-0.01-23.835-9.208-31.494-17.323    c-0.262-0.276-0.521-0.553-0.781-0.826c3.572-2.559,6.816-5.575,9.628-8.979c1.552-1.877,3.836-2.953,6.27-2.953    c2.212,0,4.355,0.917,5.882,2.517l3.263,3.417c1.887,1.977,4.499,3.095,7.231,3.095c0.001,0,0.001,0,0.001,0    c2.732,0,5.345-1.118,7.231-3.094l3.263-3.418c1.527-1.6,3.671-2.517,5.883-2.517c2.435,0,4.719,1.076,6.27,2.952    c2.812,3.403,6.054,6.421,9.629,8.979C286.28,409.223,286.02,409.498,285.758,409.775z" fill="#FFFFFF"/>
	</g>
</g>
<g>
	<g>
		<path d="M328.835,214.174c-37.489,0-67.989,30.5-67.989,67.989c0,37.489,30.5,67.989,67.989,67.989s67.989-30.5,67.989-67.989    C396.824,244.674,366.324,214.174,328.835,214.174z M328.835,330.155c-26.464,0-47.992-21.529-47.992-47.992    c0-26.464,21.529-47.992,47.992-47.992s47.992,21.529,47.992,47.992C376.827,308.627,355.298,330.155,328.835,330.155z" fill="#FFFFFF"/>
	</g>
</g>
<g>
	<g>
		<path d="M328.835,245.047c-5.521,0-9.998,4.477-9.998,9.998v3.161c0,5.521,4.477,9.998,9.998,9.998s9.998-4.477,9.998-9.998    v-3.161C338.833,249.524,334.357,245.047,328.835,245.047z" fill="#FFFFFF"/>
	</g>
</g>
<g>
	<g>
		<path d="M328.835,296.12c-5.521,0-9.998,4.477-9.998,9.998v3.161c0,5.521,4.477,9.998,9.998,9.998s9.998-4.477,9.998-9.998v-3.161    C338.833,300.596,334.357,296.12,328.835,296.12z" fill="#FFFFFF"/>
	</g>
</g>
<g>
	<g>
		<path d="M355.951,272.164h-3.161c-5.521,0-9.998,4.477-9.998,9.998c0,5.521,4.477,9.998,9.998,9.998h3.161    c5.521,0,9.998-4.477,9.998-9.998C365.95,276.642,361.472,272.164,355.951,272.164z" fill="#FFFFFF"/>
	</g>
</g>
<g>
	<g>
		<path d="M304.879,272.164h-3.161c-5.521,0-9.998,4.477-9.998,9.998c0,5.521,4.477,9.998,9.998,9.998h3.161    c5.521,0,9.998-4.477,9.998-9.998C314.878,276.642,310.401,272.164,304.879,272.164z" fill="#FFFFFF"/>
	</g>
</g>
<g>
	<g>
		<path d="M179.692,245.048c-5.521,0-9.998,4.477-9.998,9.998v3.161c0,5.521,4.477,9.998,9.998,9.998s9.998-4.477,9.998-9.998    v-3.161C189.691,249.525,185.213,245.048,179.692,245.048z" fill="#FFFFFF"/>
	</g>
</g>
<g>
	<g>
		<path d="M179.692,296.12c-5.521,0-9.998,4.477-9.998,9.998v3.161c0,5.521,4.477,9.998,9.998,9.998s9.998-4.477,9.998-9.998v-3.161    C189.691,300.597,185.213,296.12,179.692,296.12z" fill="#FFFFFF"/>
	</g>
</g>
<g>
	<g>
		<path d="M206.809,272.164h-3.161c-5.521,0-9.998,4.477-9.998,9.998c0,5.521,4.477,9.998,9.998,9.998h3.161    c5.521,0,9.998-4.477,9.998-9.998C216.807,276.642,212.33,272.164,206.809,272.164z" fill="#FFFFFF"/>
	</g>
</g>
<g>
	<g>
		<path d="M155.737,272.164h-3.161c-5.521,0-9.998,4.476-9.998,9.998c0,5.521,4.477,9.998,9.998,9.998h3.161    c5.521,0,9.998-4.477,9.998-9.998C165.735,276.642,161.258,272.164,155.737,272.164z" fill="#FFFFFF"/>
	</g>
</g>
<g>
	<g>
		<path d="M206.502,79.101c-2.762-4.78-8.876-6.421-13.658-3.659l-76.141,43.96c-4.782,2.762-6.421,8.876-3.659,13.658    c1.853,3.208,5.212,5.001,8.669,5.001c1.696,0,3.415-0.433,4.989-1.342l76.141-43.96    C207.625,89.997,209.263,83.883,206.502,79.101z" fill="#FFFFFF"/>
	</g>
</g>
<g>
	<g>
		<path d="M236.368,58.861c-1.859-1.861-4.438-2.92-7.068-2.92s-5.209,1.06-7.069,2.92c-1.86,1.87-2.93,4.449-2.93,7.079    s1.069,5.209,2.93,7.068c1.86,1.86,4.439,2.931,7.069,2.931s5.209-1.07,7.068-2.931c1.86-1.859,2.931-4.438,2.931-7.068    S238.229,60.731,236.368,58.861z" fill="#FFFFFF"/>
	</g>
</g>
<g>
</g>
<g>
</g>
<g>
</g>
<g>
</g>
<g>
</g>
<g>
</g>
<g>
</g>
<g>
</g>
<g>
</g>
<g>
</g>
<g>
</g>
<g>
</g>
<g>
</g>
<g>
</g>
<g>
</g>
</svg>
