<?xml version="1.0" encoding="iso-8859-1"?>
<!-- Generator: Adobe Illustrator 19.0.0, SVG Export Plug-In . SVG Version: 6.00 Build 0)  -->
<svg xmlns="http://www.w3.org/2000/svg" xmlns:xlink="http://www.w3.org/1999/xlink" version="1.1" id="Capa_1" x="0px" y="0px" viewBox="0 0 512 512" style="enable-background:new 0 0 512 512;" xml:space="preserve" width="512px" height="512px">
<g>
	<g>
		<path d="M234.202,295.589c-3.905-3.905-10.235-3.905-14.141,0c-10.436,10.437-27.415,10.435-37.851,0    c-3.906-3.905-10.236-3.905-14.143,0c-3.905,3.905-3.905,10.237,0,14.143c9.117,9.117,21.093,13.675,33.068,13.675    c11.975,0,23.95-4.558,33.067-13.675C238.107,305.827,238.107,299.495,234.202,295.589z" fill="#ffae00"/>
	</g>
</g>
<g>
	<g>
		<path d="M386.877,295.589c-3.906-3.905-10.236-3.905-14.143,0c-10.435,10.435-27.414,10.436-37.851,0    c-3.906-3.905-10.236-3.905-14.143,0c-3.905,3.905-3.905,10.237,0,14.143c9.117,9.117,21.093,13.675,33.067,13.675    c11.977,0,23.952-4.558,33.07-13.675C390.782,305.827,390.782,299.495,386.877,295.589z" fill="#ffae00"/>
	</g>
</g>
<g>
	<g>
		<path d="M353.868,146.545c-3.688-4.112-10.012-4.452-14.121-0.765l-0.138,0.124c-4.111,3.688-4.454,10.01-0.766,14.121    c1.975,2.202,4.705,3.322,7.446,3.322c2.379,0,4.766-0.844,6.675-2.557l0.138-0.124    C357.213,156.978,357.556,150.656,353.868,146.545z" fill="#ffae00"/>
	</g>
</g>
<g>
	<g>
		<path d="M336.355,402.839c-0.378-4.413-3.155-8.151-7.264-9.793c-0.055-0.022-0.11-0.044-0.165-0.065    c-5.047-1.945-9.536-5.176-12.981-9.345c-5.409-6.547-13.382-10.302-21.876-10.302c-5.97,0-11.798,1.916-16.597,5.366    c-4.8-3.451-10.627-5.366-16.597-5.366c-8.494,0-16.467,3.755-21.875,10.301c-3.446,4.17-7.936,7.402-12.983,9.345    c-0.042,0.017-0.092,0.036-0.14,0.056c-4.122,1.636-6.91,5.381-7.289,9.803c-0.384,4.487,1.785,8.711,5.662,11.026    c1.524,0.909,4.136,3.676,6.662,6.352c8.96,9.494,22.493,23.835,46.496,23.871c0.013,0,0.025,0,0.037,0c0.018,0,0.035,0,0.053,0    c0.012,0,0.024,0,0.037,0c24.003-0.035,37.536-14.376,46.496-23.871c2.526-2.676,5.138-5.443,6.663-6.353    C334.57,411.551,336.739,407.326,336.355,402.839z M309.487,406.488c-7.78,8.244-16.598,17.587-32.015,17.598    c-15.417-0.01-24.234-9.354-32.015-17.598c-0.301-0.318-0.6-0.635-0.896-0.949c3.66-2.604,6.981-5.685,9.858-9.166    c1.596-1.932,3.948-3.04,6.456-3.04c2.277,0,4.484,0.944,6.058,2.592l3.307,3.462c1.887,1.976,4.5,3.094,7.232,3.094    s5.346-1.118,7.232-3.094l3.308-3.464c1.572-1.646,3.779-2.591,6.058-2.591c2.507,0,4.859,1.108,6.456,3.041    c2.876,3.48,6.198,6.561,9.857,9.165C310.086,405.854,309.788,406.17,309.487,406.488z" fill="#ffae00"/>
	</g>
</g>
<g>
	<g>
		<path d="M490.482,286.667c-0.04-22.334-17.115-40.763-38.883-42.967V228c0-58.413-28.934-110.194-73.221-141.768    C370.728,36.76,328.183,0,277.599,0c-50.583,0-93.129,36.76-100.78,86.233c-44.287,31.574-73.22,83.355-73.22,141.767v15.681    c-21.888,2.086-39.096,20.565-39.137,42.986l-0.046,25.33c-0.021,11.572,4.47,22.455,12.646,30.645    c8.175,8.19,19.05,12.7,30.621,12.7c5.522,0,10-4.477,10-10s-4.478-10-10-10c-6.223,0-12.07-2.425-16.467-6.83    c-4.396-4.404-6.812-10.257-6.8-16.479l0.046-25.33c0.021-11.396,8.292-20.894,19.137-22.849v44.191c0,5.523,4.478,10,10,10    c5.522,0,10-4.477,10-10v-28.581l4.316-0.977c56.931-12.885,111.762-36.15,160.805-68.007    c33.711,43.927,85.976,69.881,141.729,69.881h1.15v11.812c0,94.104-63.252,175.81-154.109,199.508    c-41.662-10.913-78.233-34.109-105.889-67.196c-3.543-4.239-9.85-4.801-14.086-1.26c-4.237,3.542-4.802,9.849-1.26,14.086    c30.924,36.997,72.008,62.721,118.809,74.392c0.795,0.198,1.607,0.297,2.42,0.297c0.81,0,1.62-0.099,2.411-0.295l0.166-0.042    c79.822-19.877,140.608-80.426,162.593-156.322h4.607c11.571,0,22.446-4.51,30.621-12.7c8.176-8.19,12.666-19.073,12.646-30.645    L490.482,286.667z M277.599,20c34.348,0,64.073,21.084,76.189,51.592C330.765,60.332,304.909,54,277.599,54    s-53.166,6.332-76.189,17.593C213.526,41.084,243.251,20,277.599,20z M431.6,256v4.36h-1.151    c-49.121,0-95.2-22.678-125.158-61.128c6.923-4.909,13.722-9.987,20.372-15.245c4.332-3.425,5.067-9.714,1.643-14.046    c-3.426-4.332-9.714-5.067-14.047-1.642c-55.31,43.731-120.891,75.079-189.659,90.658V256v-28c0-84.916,69.084-154,154-154    s154,69.084,154,154V256z M463.728,328.512c-4.344,4.352-10.106,6.767-16.246,6.824c2.706-14.015,4.117-28.451,4.117-43.164    v-28.273c10.72,2.056,18.862,11.497,18.883,22.804l0.046,25.33C470.54,318.255,468.125,324.108,463.728,328.512z" fill="#ffae00"/>
	</g>
</g>
<g>
	<g>
		<path d="M185.912,334.616c-2.939-2.939-7.394-3.754-11.185-2.043l-49.237,22.22c0.004,0.008,0.007,0.015,0.012,0.023    c-1.083,0.488-2.098,1.149-2.97,2.02l-98.131,98.131c-3.905,3.905-3.905,10.237,0,14.143c3.906,3.905,10.236,3.905,14.143,0    l86.247-86.248c1.556,2.603,3.444,5.031,5.645,7.23c2.2,2.2,4.628,4.089,7.231,5.645l-75.229,75.229    c-3.905,3.905-3.905,10.237,0,14.142c1.953,1.953,4.512,2.929,7.071,2.929c2.559,0,5.118-0.977,7.071-2.929l87.111-87.112    c0.872-0.871,1.532-1.885,2.02-2.967c0.009,0.003,0.016,0.005,0.025,0.009l22.22-49.237    C189.666,342.01,188.852,337.557,185.912,334.616z M150.65,379.844c-2.251-0.839-4.323-2.143-6.073-3.893    c-1.75-1.751-3.053-3.822-3.893-6.073l18.162-8.196L150.65,379.844z" fill="#ffae00"/>
	</g>
</g>
<g>
	<g>
		<path d="M52.612,494.93c-1.86-1.86-4.44-2.93-7.07-2.93s-5.21,1.07-7.069,2.93c-1.86,1.86-2.931,4.44-2.931,7.07    s1.07,5.21,2.931,7.07c1.859,1.86,4.439,2.93,7.069,2.93c2.631,0,5.21-1.07,7.07-2.93c1.87-1.86,2.93-4.44,2.93-7.07    S54.482,496.79,52.612,494.93z" fill="#ffae00"/>
	</g>
</g>
<g>
</g>
<g>
</g>
<g>
</g>
<g>
</g>
<g>
</g>
<g>
</g>
<g>
</g>
<g>
</g>
<g>
</g>
<g>
</g>
<g>
</g>
<g>
</g>
<g>
</g>
<g>
</g>
<g>
</g>
</svg>
