<?xml version="1.0" encoding="iso-8859-1"?>
<!-- Generator: Adobe Illustrator 19.0.0, SVG Export Plug-In . SVG Version: 6.00 Build 0)  -->
<svg xmlns="http://www.w3.org/2000/svg" xmlns:xlink="http://www.w3.org/1999/xlink" version="1.1" id="Capa_1" x="0px" y="0px" viewBox="0 0 512 512" style="enable-background:new 0 0 512 512;" xml:space="preserve" width="512px" height="512px">
<g>
	<g>
		<path d="M305.188,207.266c-1.86-1.86-4.441-2.93-7.071-2.93c-2.63,0-5.211,1.07-7.071,2.93c-1.87,1.86-2.93,4.441-2.93,7.071    s1.06,5.211,2.93,7.071c1.86,1.87,4.441,2.93,7.071,2.93c2.63,0,5.211-1.06,7.071-2.93c1.86-1.86,2.931-4.441,2.931-7.071    S307.049,209.126,305.188,207.266z" fill="#ffae00"/>
	</g>
</g>
<g>
	<g>
		<path d="M130.076,360.182l-0.092-0.091c-0.035-0.035-0.069-0.069-0.104-0.104c-3.923-3.889-10.223-3.829-14.112,0.094    c-3.889,3.923-3.829,10.288,0.094,14.177l0.001-0.001c0.063,0.064,0.126,0.128,0.191,0.192c1.947,1.914,4.48,2.869,7.01,2.869    c2.588,0,5.176-0.999,7.133-2.991C134.071,370.388,134.016,364.054,130.076,360.182z" fill="#ffae00"/>
	</g>
</g>
<g>
	<g>
		<path d="M467.038,164.331c-14.044,0-25.995,9.096-30.294,21.702h-21.715v-27.005C415.029,71.34,343.689,0,256,0    S96.972,71.34,96.972,159.028v27.005H75.256c-4.3-12.606-16.251-21.702-30.294-21.702c-17.648,0-32.006,14.358-32.006,32.006    v1.607c0,15.442,12.563,28.005,28.005,28.005c5.524,0,10.002-4.479,10.002-10.002s-4.478-10.002-10.002-10.002    c-4.412,0-8.001-3.59-8.001-8.001v-1.607c0-6.618,5.384-12.002,12.002-12.002c6.618,0,12.002,5.384,12.002,12.002v36.583    c0,36.784,10.116,72.72,29.254,103.922c1.887,3.078,5.172,4.773,8.536,4.773c1.783,0,3.589-0.477,5.22-1.477    c4.709-2.889,6.184-9.047,3.297-13.755c-17.207-28.054-26.302-60.373-26.302-93.464v-26.882h20.004v27.005    c0,87.689,71.34,159.028,159.028,159.028s159.028-71.34,159.028-159.028v-27.005h20.004v26.883    c0,98.719-80.313,179.032-179.032,179.032c-32.847,0-64.963-8.971-92.874-25.943c-4.719-2.867-10.872-1.369-13.742,3.351    c-2.871,4.72-1.37,10.872,3.35,13.742c22.465,13.659,47.373,22.655,73.261,26.586v22.302H195.99    c-27.575,0-50.009,22.434-50.009,50.009c0,5.523,4.478,10.002,10.002,10.002h200.036c5.524,0,10.002-4.479,10.002-10.002    c0-27.575-22.434-50.009-50.009-50.009h-30.005v-22.295c95.563-14.512,169.03-97.224,169.03-196.775v-36.583    c0-6.618,5.384-12.002,12.002-12.002s12.002,5.384,12.002,12.002v1.607c0,4.412-3.59,8.001-8.001,8.001    c-5.524,0-10.002,4.479-10.002,10.002c0,5.523,4.478,10.002,10.002,10.002c15.442,0,28.005-12.563,28.005-28.005v-1.607    C499.044,178.689,484.686,164.331,467.038,164.331z M256,372.066c-28.751,0-55.491-8.773-77.685-23.781l102.837-102.837    c3.906-3.906,3.906-10.239,0-14.146c-3.906-3.905-10.239-3.905-14.146,0L162.484,335.826    c-27.944-25.447-45.509-62.102-45.509-102.784v-74.013c0-76.659,62.366-139.025,139.025-139.025    c35.343,0,67.642,13.264,92.198,35.067L196.002,207.267c-3.906,3.906-3.906,10.239,0,14.146c1.953,1.952,4.513,2.93,7.072,2.93    s5.12-0.977,7.072-2.93L362.172,69.386c20.483,24.221,32.852,55.512,32.852,89.642v74.013h0.001    C395.025,309.7,332.659,372.066,256,372.066z M245.999,431.955h20.004v19.973h-20.004V431.955z M316.011,471.993    c13.039,0,24.163,8.361,28.291,20.004H167.698c4.128-11.643,15.252-20.004,28.292-20.004H316.011z" fill="#ffae00"/>
	</g>
</g>
<g>
</g>
<g>
</g>
<g>
</g>
<g>
</g>
<g>
</g>
<g>
</g>
<g>
</g>
<g>
</g>
<g>
</g>
<g>
</g>
<g>
</g>
<g>
</g>
<g>
</g>
<g>
</g>
<g>
</g>
</svg>
